<svg width="113" height="37" viewBox="0 0 113 37" fill="none" xmlns="http://www.w3.org/2000/svg">
<path d="M0 22.504L4.00326 2.48774H7.77776L13.4681 16.6707L11.4665 16.6421L22.5612 2.48774H26.5359L22.5612 22.504H18.2148L20.8741 9.09312H21.7606L12.9248 20.388H10.866L6.14786 9.06452L7.0057 9.15031L4.3464 22.504H0Z" fill="#E62152"/>
<path d="M27.0242 22.504L30.0839 7.12008H34.516L31.4564 22.504H27.0242ZM30.0553 5.14705L34.3445 1.02941H39.2628L33.6582 5.14705H30.0553Z" fill="#E62152"/>
<path d="M35.5971 22.504L38.6567 7.12008H42.8887L42.0023 11.4951L41.6019 10.2369C42.2882 8.9978 43.1842 8.13043 44.2898 7.63479C45.3955 7.13915 46.7204 6.89132 48.2645 6.89132L47.4639 11.009C47.2732 10.9899 47.0921 10.9804 46.9206 10.9804C46.7681 10.9613 46.606 10.9518 46.4344 10.9518C45.1191 10.9518 44.042 11.2758 43.2033 11.924C42.3835 12.5721 41.8307 13.6206 41.5448 15.0694L40.0578 22.504H35.5971Z" fill="#E62152"/>
<path d="M47.828 22.504L50.8876 7.12008H55.3198L52.2602 22.504H47.828ZM53.8615 4.97548C53.0799 4.97548 52.4508 4.75625 51.9742 4.3178C51.4977 3.86029 51.2594 3.30746 51.2594 2.65931C51.2594 1.89678 51.5262 1.2677 52.06 0.772057C52.6128 0.257352 53.3277 0 54.2046 0C54.9862 0 55.6153 0.219226 56.0919 0.657678C56.5875 1.07707 56.8353 1.6013 56.8353 2.23039C56.8353 3.0501 56.5589 3.71731 56.0061 4.23202C55.4723 4.72766 54.7574 4.97548 53.8615 4.97548Z" fill="#E62152"/>
<path d="M63.3493 22.7328C62.1674 22.7328 61.0713 22.4659 60.0609 21.9321C59.0506 21.3793 58.2404 20.5882 57.6304 19.5588C57.0204 18.5294 56.7154 17.2903 56.7154 15.8415C56.7154 14.5452 56.9251 13.3537 57.3444 12.2671C57.7829 11.1805 58.3929 10.2369 59.1745 9.43625C59.9561 8.6356 60.8616 8.01605 61.891 7.5776C62.9204 7.12008 64.0261 6.89132 65.208 6.89132C66.4852 6.89132 67.5814 7.12961 68.4964 7.60619C69.4114 8.08277 70.0882 8.82623 70.5266 9.83658C70.9841 10.8279 71.1462 12.1146 71.0127 13.6969C70.9174 15.5079 70.5457 17.0996 69.8975 18.4722C69.2494 19.8257 68.3725 20.8741 67.2668 21.6176C66.1802 22.3611 64.8744 22.7328 63.3493 22.7328ZM64.7219 19.0441C65.5988 19.0441 66.3708 18.8344 67.0381 18.415C67.7243 17.9765 68.2581 17.3856 68.6394 16.6421C69.0397 15.8796 69.2398 14.9932 69.2398 13.9828C69.2398 12.9343 68.9253 12.1051 68.2962 11.4951C67.6862 10.8851 66.8284 10.58 65.7227 10.58C64.8649 10.58 64.0928 10.7993 63.4065 11.2377C62.7203 11.6571 62.177 12.2481 61.7766 13.0106C61.3954 13.7541 61.2047 14.631 61.2047 15.6413C61.2047 16.6898 61.5097 17.519 62.1198 18.129C62.7488 18.7391 63.6162 19.0441 64.7219 19.0441ZM67.7815 22.504L68.382 19.4444L69.3828 14.8692L69.9833 10.2941L70.6124 7.12008H75.0732L72.0135 22.504H67.7815Z" fill="#E62152"/>
<path d="M83.1492 22.7328C81.9672 22.7328 80.8711 22.4659 79.8608 21.9321C78.8504 21.3793 78.0402 20.5882 77.4302 19.5588C76.8202 18.5294 76.5152 17.2903 76.5152 15.8415C76.5152 14.5452 76.7249 13.3537 77.1443 12.2671C77.5827 11.1805 78.1927 10.2369 78.9743 9.43625C79.7559 8.6356 80.6614 8.01605 81.6908 7.5776C82.7202 7.12008 83.8259 6.89132 85.0078 6.89132C86.2088 6.89132 87.2477 7.10102 88.1246 7.52041C89.0015 7.9398 89.6783 8.58794 90.1549 9.46485C90.6505 10.3227 90.8983 11.4093 90.8983 12.7246C90.8983 14.1353 90.7268 15.4507 90.3836 16.6707C90.0595 17.8717 89.5639 18.9297 88.8967 19.8447C88.2295 20.7407 87.4098 21.446 86.4376 21.9607C85.4844 22.4754 84.3883 22.7328 83.1492 22.7328ZM84.5217 19.0441C85.3986 19.0441 86.1707 18.8344 86.8379 18.415C87.5241 17.9765 88.0579 17.3856 88.4392 16.6421C88.8395 15.8796 89.0397 14.9932 89.0397 13.9828C89.0397 12.9343 88.7251 12.1051 88.096 11.4951C87.486 10.8851 86.6282 10.58 85.5225 10.58C84.6647 10.58 83.8926 10.7993 83.2064 11.2377C82.5201 11.6571 81.9768 12.2481 81.5764 13.0106C81.1952 13.7541 81.0046 14.631 81.0046 15.6413C81.0046 16.6898 81.3096 17.519 81.9196 18.129C82.5487 18.7391 83.416 19.0441 84.5217 19.0441ZM87.5527 22.504L88.1818 19.4444L89.154 14.8692L89.7545 10.2941L91.556 1.28676H96.0168L91.7848 22.504H87.5527Z" fill="#E62152"/>
<path d="M104.12 22.7328C102.519 22.7328 101.127 22.4468 99.9452 21.8749C98.7823 21.3031 97.8768 20.5024 97.2287 19.473C96.5806 18.4436 96.2565 17.2331 96.2565 15.8415C96.2565 14.1258 96.6377 12.6007 97.4003 11.2663C98.1819 9.91283 99.2494 8.8453 100.603 8.06371C101.975 7.28212 103.548 6.89132 105.321 6.89132C106.827 6.89132 108.123 7.17727 109.21 7.74917C110.296 8.302 111.135 9.08358 111.726 10.0939C112.336 11.0852 112.641 12.2767 112.641 13.6683C112.641 14.0686 112.613 14.4689 112.555 14.8692C112.517 15.2696 112.46 15.6508 112.384 16.013H99.6592L100.117 13.4109H110.296L108.466 14.2116C108.619 13.3537 108.571 12.6389 108.323 12.067C108.076 11.476 107.675 11.028 107.122 10.723C106.57 10.3989 105.902 10.2369 105.121 10.2369C104.149 10.2369 103.319 10.4752 102.633 10.9518C101.966 11.4093 101.461 12.0479 101.118 12.8676C100.774 13.6873 100.603 14.6119 100.603 15.6413C100.603 16.8232 100.927 17.7097 101.575 18.3006C102.242 18.8725 103.243 19.1585 104.578 19.1585C105.359 19.1585 106.112 19.0345 106.837 18.7867C107.561 18.5389 108.18 18.1862 108.695 17.7287L110.554 20.674C109.658 21.3793 108.648 21.9035 107.523 22.2467C106.417 22.5708 105.283 22.7328 104.12 22.7328Z" fill="#E62152"/>
<path d="M0.122719 34.4185V27.3294H1.43927V34.4185H0.122719Z" fill="#0D2E54"/>
<path d="M6.30377 28.9498C6.73587 28.9498 7.1207 29.0341 7.45828 29.2029C7.80261 29.3717 8.07267 29.6317 8.26846 29.9827C8.46426 30.3271 8.56215 30.7727 8.56215 31.3195V34.4185H7.29624V31.4816C7.29624 31.0022 7.18147 30.6444 6.95192 30.4081C6.72912 30.1718 6.41517 30.0536 6.01008 30.0536C5.71301 30.0536 5.4497 30.1144 5.22015 30.2359C4.9906 30.3574 4.81168 30.5397 4.6834 30.7828C4.56187 31.0191 4.50111 31.3195 4.50111 31.6841V34.4185H3.2352V29.0105H4.44035V30.4688L4.22767 30.0232C4.41672 29.6789 4.69015 29.4156 5.04798 29.2333C5.41257 29.0443 5.83116 28.9498 6.30377 28.9498Z" fill="#0D2E54"/>
<path d="M12.6085 34.4894C12.0549 34.4894 11.562 34.3712 11.1299 34.1349C10.6978 33.8919 10.3568 33.561 10.107 33.1425C9.85723 32.7239 9.73233 32.2479 9.73233 31.7145C9.73233 31.1744 9.85723 30.6984 10.107 30.2866C10.3568 29.868 10.6978 29.5405 11.1299 29.3042C11.562 29.0679 12.0549 28.9498 12.6085 28.9498C13.1689 28.9498 13.6651 29.0679 14.0972 29.3042C14.536 29.5405 14.877 29.8646 15.1201 30.2764C15.3699 30.6883 15.4948 31.1676 15.4948 31.7145C15.4948 32.2479 15.3699 32.7239 15.1201 33.1425C14.877 33.561 14.536 33.8919 14.0972 34.1349C13.6651 34.3712 13.1689 34.4894 12.6085 34.4894ZM12.6085 33.4058C12.9191 33.4058 13.1959 33.3382 13.4389 33.2032C13.682 33.0682 13.871 32.8724 14.006 32.6158C14.1478 32.3593 14.2187 32.0588 14.2187 31.7145C14.2187 31.3634 14.1478 31.063 14.006 30.8132C13.871 30.5566 13.682 30.3608 13.4389 30.2258C13.1959 30.0908 12.9224 30.0232 12.6186 30.0232C12.308 30.0232 12.0312 30.0908 11.7882 30.2258C11.5519 30.3608 11.3628 30.5566 11.221 30.8132C11.0793 31.063 11.0084 31.3634 11.0084 31.7145C11.0084 32.0588 11.0793 32.3593 11.221 32.6158C11.3628 32.8724 11.5519 33.0682 11.7882 33.2032C12.0312 33.3382 12.3047 33.4058 12.6085 33.4058Z" fill="#0D2E54"/>
<path d="M17.995 34.4185L15.6759 29.0105H16.9924L18.9875 33.7805H18.3393L20.4053 29.0105H21.6206L19.3014 34.4185H17.995Z" fill="#0D2E54"/>
<path d="M25.5755 34.4185V33.3247L25.5046 33.0918V31.1778C25.5046 30.8064 25.3932 30.5195 25.1704 30.3169C24.9476 30.1076 24.6101 30.003 24.1577 30.003C23.8539 30.003 23.5534 30.0503 23.2564 30.1448C22.9661 30.2393 22.7196 30.371 22.5171 30.5397L22.0208 29.6182C22.3112 29.3954 22.6555 29.2299 23.0538 29.1219C23.4589 29.0071 23.8775 28.9498 24.3096 28.9498C25.0928 28.9498 25.6971 29.1388 26.1224 29.5169C26.5545 29.8882 26.7706 30.4655 26.7706 31.2486V34.4185H25.5755ZM23.8741 34.4894C23.4691 34.4894 23.1146 34.4219 22.8108 34.2868C22.507 34.1451 22.2707 33.9526 22.1019 33.7096C21.9398 33.4598 21.8588 33.1796 21.8588 32.869C21.8588 32.5652 21.9297 32.2918 22.0715 32.0487C22.22 31.8057 22.4597 31.6132 22.7905 31.4715C23.1213 31.3297 23.5602 31.2588 24.1071 31.2588H25.6768V32.0993H24.1982C23.7661 32.0993 23.4758 32.1702 23.3273 32.312C23.1787 32.447 23.1045 32.6158 23.1045 32.8184C23.1045 33.0479 23.1956 33.2302 23.3779 33.3653C23.5602 33.5003 23.8134 33.5678 24.1375 33.5678C24.448 33.5678 24.7248 33.4969 24.9679 33.3551C25.2177 33.2133 25.3966 33.004 25.5046 32.7272L25.7173 33.4868C25.5958 33.8041 25.3764 34.0505 25.059 34.2261C24.7485 34.4016 24.3535 34.4894 23.8741 34.4894Z" fill="#0D2E54"/>
<path d="M30.8863 34.4894C30.3191 34.4894 29.8128 34.3712 29.3672 34.1349C28.9283 33.8919 28.584 33.561 28.3342 33.1425C28.0844 32.7239 27.9595 32.2479 27.9595 31.7145C27.9595 31.1744 28.0844 30.6984 28.3342 30.2866C28.584 29.868 28.9283 29.5405 29.3672 29.3042C29.8128 29.0679 30.3191 28.9498 30.8863 28.9498C31.4129 28.9498 31.8754 29.0578 32.2737 29.2738C32.6788 29.4831 32.986 29.7937 33.1953 30.2055L32.2231 30.7727C32.061 30.5161 31.8619 30.3271 31.6256 30.2055C31.396 30.084 31.1462 30.0232 30.8761 30.0232C30.5656 30.0232 30.2854 30.0908 30.0356 30.2258C29.7858 30.3608 29.59 30.5566 29.4482 30.8132C29.3064 31.063 29.2355 31.3634 29.2355 31.7145C29.2355 32.0656 29.3064 32.3694 29.4482 32.626C29.59 32.8758 29.7858 33.0682 30.0356 33.2032C30.2854 33.3382 30.5656 33.4058 30.8761 33.4058C31.1462 33.4058 31.396 33.345 31.6256 33.2235C31.8619 33.1019 32.061 32.9129 32.2231 32.6563L33.1953 33.2235C32.986 33.6286 32.6788 33.9425 32.2737 34.1653C31.8754 34.3814 31.4129 34.4894 30.8863 34.4894ZM30.3596 36.7275C30.1774 36.7275 30.0086 36.7073 29.8533 36.6668C29.698 36.633 29.5562 36.5824 29.4279 36.5148L29.6609 35.9173C29.7689 35.9713 29.8769 36.0119 29.9849 36.0389C30.0997 36.0659 30.2212 36.0794 30.3495 36.0794C30.5453 36.0794 30.6837 36.0456 30.7647 35.9781C30.8458 35.9106 30.8863 35.8228 30.8863 35.7148C30.8863 35.6135 30.8424 35.5325 30.7546 35.4717C30.6736 35.411 30.5386 35.3806 30.3495 35.3806H30.0356L30.309 34.3476H30.9977L30.8559 34.9147C31.153 34.9485 31.3724 35.043 31.5142 35.1983C31.6627 35.3603 31.737 35.5494 31.737 35.7654C31.737 36.0625 31.6121 36.2954 31.3622 36.4642C31.1124 36.6397 30.7782 36.7275 30.3596 36.7275Z" fill="#0D2E54"/>
<path d="M37.6215 34.4185V33.3247L37.5506 33.0918V31.1778C37.5506 30.8064 37.4392 30.5195 37.2164 30.3169C36.9936 30.1076 36.656 30.003 36.2036 30.003C35.8998 30.003 35.5994 30.0503 35.3023 30.1448C35.012 30.2393 34.7656 30.371 34.563 30.5397L34.0668 29.6182C34.3571 29.3954 34.7014 29.2299 35.0998 29.1219C35.5049 29.0071 35.9235 28.9498 36.3556 28.9498C37.1387 28.9498 37.743 29.1388 38.1683 29.5169C38.6004 29.8882 38.8165 30.4655 38.8165 31.2486V34.4185H37.6215ZM35.9201 34.4894C35.515 34.4894 35.1605 34.4219 34.8567 34.2868C34.5529 34.1451 34.3166 33.9526 34.1478 33.7096C33.9858 33.4598 33.9048 33.1796 33.9048 32.869C33.9048 32.5652 33.9756 32.2918 34.1174 32.0487C34.266 31.8057 34.5056 31.6132 34.8365 31.4715C35.1673 31.3297 35.6061 31.2588 36.153 31.2588H37.7227V32.0993H36.2442C35.8121 32.0993 35.5217 32.1702 35.3732 32.312C35.2247 32.447 35.1504 32.6158 35.1504 32.8184C35.1504 33.0479 35.2416 33.2302 35.4238 33.3653C35.6061 33.5003 35.8593 33.5678 36.1834 33.5678C36.494 33.5678 36.7708 33.4969 37.0138 33.3551C37.2636 33.2133 37.4426 33.004 37.5506 32.7272L37.7633 33.4868C37.6417 33.8041 37.4223 34.0505 37.105 34.2261C36.7944 34.4016 36.3994 34.4894 35.9201 34.4894ZM37.1961 28.2712C37.0341 28.2712 36.8856 28.2408 36.7505 28.1801C36.6222 28.1126 36.5041 28.0349 36.3961 27.9472C36.2948 27.8526 36.1969 27.7716 36.1024 27.7041C36.0079 27.6366 35.9133 27.6028 35.8188 27.6028C35.677 27.6028 35.5623 27.6568 35.4745 27.7649C35.3867 27.8729 35.3361 28.0214 35.3226 28.2105H34.644C34.6575 27.7919 34.7588 27.461 34.9479 27.218C35.1437 26.9749 35.407 26.8534 35.7378 26.8534C35.8998 26.8534 36.0484 26.8872 36.1834 26.9547C36.3184 27.0222 36.4366 27.0998 36.5378 27.1876C36.6459 27.2754 36.7471 27.353 36.8417 27.4205C36.9362 27.4881 37.0273 27.5218 37.1151 27.5218C37.2569 27.5218 37.3717 27.4712 37.4594 27.3699C37.554 27.2686 37.6046 27.1268 37.6113 26.9446H38.2899C38.2831 27.3361 38.1818 27.6568 37.9861 27.9066C37.7903 28.1497 37.5269 28.2712 37.1961 28.2712Z" fill="#0D2E54"/>
<path d="M42.8816 34.4894C42.3279 34.4894 41.8351 34.3712 41.403 34.1349C40.9709 33.8919 40.6299 33.561 40.3801 33.1425C40.1303 32.7239 40.0054 32.2479 40.0054 31.7145C40.0054 31.1744 40.1303 30.6984 40.3801 30.2866C40.6299 29.868 40.9709 29.5405 41.403 29.3042C41.8351 29.0679 42.3279 28.9498 42.8816 28.9498C43.4419 28.9498 43.9382 29.0679 44.3703 29.3042C44.8091 29.5405 45.1501 29.8646 45.3931 30.2764C45.6429 30.6883 45.7678 31.1676 45.7678 31.7145C45.7678 32.2479 45.6429 32.7239 45.3931 33.1425C45.1501 33.561 44.8091 33.8919 44.3703 34.1349C43.9382 34.3712 43.4419 34.4894 42.8816 34.4894ZM42.8816 33.4058C43.1921 33.4058 43.4689 33.3382 43.712 33.2032C43.9551 33.0682 44.1441 32.8724 44.2791 32.6158C44.4209 32.3593 44.4918 32.0588 44.4918 31.7145C44.4918 31.3634 44.4209 31.063 44.2791 30.8132C44.1441 30.5566 43.9551 30.3608 43.712 30.2258C43.4689 30.0908 43.1955 30.0232 42.8917 30.0232C42.5811 30.0232 42.3043 30.0908 42.0613 30.2258C41.825 30.3608 41.6359 30.5566 41.4941 30.8132C41.3523 31.063 41.2815 31.3634 41.2815 31.7145C41.2815 32.0588 41.3523 32.3593 41.4941 32.6158C41.6359 32.8724 41.825 33.0682 42.0613 33.2032C42.3043 33.3382 42.5778 33.4058 42.8816 33.4058Z" fill="#0D2E54"/>
<path d="M51.114 30.2764H54.6383V31.3601H51.114V30.2764ZM51.2153 33.3146H55.2156V34.4185H49.8988V27.3294H55.0738V28.4333H51.2153V33.3146Z" fill="#0D2E54"/>
<path d="M55.7334 34.4185L58.1133 31.3195L58.0931 31.9981L55.8246 29.0105H57.2323L58.8222 31.1372H58.2855L59.8856 29.0105H61.2528L58.964 31.9981L58.9742 31.3195L61.3439 34.4185H59.916L58.245 32.1601L58.7716 32.231L57.131 34.4185H55.7334Z" fill="#0D2E54"/>
<path d="M65.2758 34.4894C64.8369 34.4894 64.4352 34.3881 64.0706 34.1856C63.7128 33.983 63.4259 33.6792 63.2098 33.2741C63.0005 32.8623 62.8959 32.3424 62.8959 31.7145C62.8959 31.0799 62.9971 30.56 63.1997 30.1549C63.409 29.7498 63.6925 29.4494 64.0504 29.2536C64.4082 29.051 64.8167 28.9498 65.2758 28.9498C65.8092 28.9498 66.2784 29.0645 66.6835 29.2941C67.0953 29.5236 67.4194 29.8443 67.6557 30.2562C67.8988 30.668 68.0203 31.1541 68.0203 31.7145C68.0203 32.2749 67.8988 32.7644 67.6557 33.183C67.4194 33.5948 67.0953 33.9155 66.6835 34.1451C66.2784 34.3746 65.8092 34.4894 65.2758 34.4894ZM62.2781 36.3832V29.0105H63.4832V30.2866L63.4427 31.7246L63.544 33.1627V36.3832H62.2781ZM65.134 33.4058C65.4378 33.4058 65.7079 33.3382 65.9442 33.2032C66.1872 33.0682 66.3797 32.8724 66.5214 32.6158C66.6632 32.3593 66.7341 32.0588 66.7341 31.7145C66.7341 31.3634 66.6632 31.063 66.5214 30.8132C66.3797 30.5566 66.1872 30.3608 65.9442 30.2258C65.7079 30.0908 65.4378 30.0232 65.134 30.0232C64.8302 30.0232 64.5567 30.0908 64.3137 30.2258C64.0706 30.3608 63.8782 30.5566 63.7364 30.8132C63.5946 31.063 63.5238 31.3634 63.5238 31.7145C63.5238 32.0588 63.5946 32.3593 63.7364 32.6158C63.8782 32.8724 64.0706 33.0682 64.3137 33.2032C64.5567 33.3382 64.8302 33.4058 65.134 33.4058Z" fill="#0D2E54"/>
<path d="M71.6514 34.4894C71.0978 34.4894 70.6049 34.3712 70.1728 34.1349C69.7407 33.8919 69.3997 33.561 69.1499 33.1425C68.9001 32.7239 68.7752 32.2479 68.7752 31.7145C68.7752 31.1744 68.9001 30.6984 69.1499 30.2866C69.3997 29.868 69.7407 29.5405 70.1728 29.3042C70.6049 29.0679 71.0978 28.9498 71.6514 28.9498C72.2118 28.9498 72.708 29.0679 73.1401 29.3042C73.5789 29.5405 73.9199 29.8646 74.163 30.2764C74.4128 30.6883 74.5377 31.1676 74.5377 31.7145C74.5377 32.2479 74.4128 32.7239 74.163 33.1425C73.9199 33.561 73.5789 33.8919 73.1401 34.1349C72.708 34.3712 72.2118 34.4894 71.6514 34.4894ZM71.6514 33.4058C71.962 33.4058 72.2388 33.3382 72.4818 33.2032C72.7249 33.0682 72.9139 32.8724 73.049 32.6158C73.1907 32.3593 73.2616 32.0588 73.2616 31.7145C73.2616 31.3634 73.1907 31.063 73.049 30.8132C72.9139 30.5566 72.7249 30.3608 72.4818 30.2258C72.2388 30.0908 71.9653 30.0232 71.6615 30.0232C71.3509 30.0232 71.0741 30.0908 70.8311 30.2258C70.5948 30.3608 70.4057 30.5566 70.2639 30.8132C70.1222 31.063 70.0513 31.3634 70.0513 31.7145C70.0513 32.0588 70.1222 32.3593 70.2639 32.6158C70.4057 32.8724 70.5948 33.0682 70.8311 33.2032C71.0741 33.3382 71.3476 33.4058 71.6514 33.4058Z" fill="#0D2E54"/>
<path d="M78.8168 28.9498C79.2489 28.9498 79.6337 29.0341 79.9713 29.2029C80.3156 29.3717 80.5857 29.6317 80.7815 29.9827C80.9772 30.3271 81.0751 30.7727 81.0751 31.3195V34.4185H79.8092V31.4816C79.8092 31.0022 79.6945 30.6444 79.4649 30.4081C79.2421 30.1718 78.9282 30.0536 78.5231 30.0536C78.226 30.0536 77.9627 30.1144 77.7331 30.2359C77.5036 30.3574 77.3247 30.5397 77.1964 30.7828C77.0749 31.0191 77.0141 31.3195 77.0141 31.6841V34.4185H75.7482V29.0105H76.9533V30.4688L76.7407 30.0232C76.9297 29.6789 77.2031 29.4156 77.561 29.2333C77.9256 29.0443 78.3442 28.9498 78.8168 28.9498Z" fill="#0D2E54"/>
<path d="M85.2329 34.4894C84.632 34.4894 84.1054 34.3712 83.653 34.1349C83.2074 33.8919 82.8597 33.561 82.6099 33.1425C82.3668 32.7239 82.2453 32.2479 82.2453 31.7145C82.2453 31.1744 82.3635 30.6984 82.5998 30.2866C82.8428 29.868 83.1737 29.5405 83.5923 29.3042C84.0176 29.0679 84.5003 28.9498 85.0405 28.9498C85.5671 28.9498 86.0363 29.0645 86.4482 29.2941C86.86 29.5236 87.1841 29.8477 87.4204 30.2663C87.6567 30.6849 87.7748 31.1778 87.7748 31.7449C87.7748 31.7989 87.7714 31.8597 87.7647 31.9272C87.7647 31.9947 87.7613 32.0588 87.7546 32.1196H83.2479V31.279H87.0862L86.5899 31.5423C86.5967 31.2318 86.5325 30.9583 86.3975 30.722C86.2625 30.4857 86.0768 30.3001 85.8405 30.165C85.611 30.03 85.3443 29.9625 85.0405 29.9625C84.7299 29.9625 84.4564 30.03 84.2201 30.165C83.9906 30.3001 83.8083 30.4891 83.6733 30.7322C83.545 30.9685 83.4809 31.2487 83.4809 31.5727V31.7753C83.4809 32.0993 83.5551 32.3863 83.7037 32.6361C83.8522 32.8859 84.0615 33.0783 84.3315 33.2133C84.6016 33.3484 84.9122 33.4159 85.2633 33.4159C85.5671 33.4159 85.8405 33.3686 86.0836 33.2741C86.3266 33.1796 86.5427 33.0311 86.7317 32.8285L87.4102 33.6083C87.1672 33.8919 86.86 34.1113 86.4887 34.2666C86.1241 34.4151 85.7055 34.4894 85.2329 34.4894Z" fill="#0D2E54"/>
<path d="M92.0594 28.9498C92.4915 28.9498 92.8763 29.0341 93.2139 29.2029C93.5582 29.3717 93.8283 29.6317 94.0241 29.9827C94.2199 30.3271 94.3178 30.7727 94.3178 31.3195V34.4185H93.0519V31.4816C93.0519 31.0022 92.9371 30.6444 92.7075 30.4081C92.4847 30.1718 92.1708 30.0536 91.7657 30.0536C91.4686 30.0536 91.2053 30.1144 90.9758 30.2359C90.7462 30.3574 90.5673 30.5397 90.439 30.7828C90.3175 31.0191 90.2567 31.3195 90.2567 31.6841V34.4185H88.9908V29.0105H90.196V30.4688L89.9833 30.0232C90.1723 29.6789 90.4458 29.4156 90.8036 29.2333C91.1682 29.0443 91.5868 28.9498 92.0594 28.9498Z" fill="#0D2E54"/>
<path d="M98.4147 34.4894C97.8476 34.4894 97.3412 34.3712 96.8956 34.1349C96.4568 33.8919 96.1125 33.561 95.8626 33.1425C95.6128 32.7239 95.4879 32.2479 95.4879 31.7145C95.4879 31.1744 95.6128 30.6984 95.8626 30.2866C96.1125 29.868 96.4568 29.5405 96.8956 29.3042C97.3412 29.0679 97.8476 28.9498 98.4147 28.9498C98.9414 28.9498 99.4038 29.0578 99.8022 29.2738C100.207 29.4831 100.514 29.7937 100.724 30.2055L99.7515 30.7727C99.5895 30.5161 99.3903 30.3271 99.154 30.2055C98.9245 30.084 98.6747 30.0232 98.4046 30.0232C98.094 30.0232 97.8138 30.0908 97.564 30.2258C97.3142 30.3608 97.1184 30.5566 96.9767 30.8132C96.8349 31.063 96.764 31.3634 96.764 31.7145C96.764 32.0656 96.8349 32.3694 96.9767 32.626C97.1184 32.8758 97.3142 33.0682 97.564 33.2032C97.8138 33.3382 98.094 33.4058 98.4046 33.4058C98.6747 33.4058 98.9245 33.345 99.154 33.2235C99.3903 33.1019 99.5895 32.9129 99.7515 32.6563L100.724 33.2235C100.514 33.6286 100.207 33.9425 99.8022 34.1653C99.4038 34.3814 98.9414 34.4894 98.4147 34.4894Z" fill="#0D2E54"/>
<path d="M101.769 34.4185V29.0105H103.035V34.4185H101.769ZM102.407 28.1193C102.17 28.1193 101.975 28.0451 101.819 27.8965C101.671 27.748 101.596 27.5691 101.596 27.3598C101.596 27.1437 101.671 26.9648 101.819 26.823C101.975 26.6745 102.17 26.6002 102.407 26.6002C102.643 26.6002 102.835 26.6711 102.984 26.8129C103.139 26.9479 103.217 27.1201 103.217 27.3294C103.217 27.5522 103.143 27.7412 102.994 27.8965C102.845 28.0451 102.65 28.1193 102.407 28.1193Z" fill="#0D2E54"/>
<path d="M108.028 34.4185V33.3247L107.957 33.0918V31.1778C107.957 30.8064 107.846 30.5195 107.623 30.3169C107.4 30.1076 107.062 30.003 106.61 30.003C106.306 30.003 106.006 30.0503 105.709 30.1448C105.418 30.2393 105.172 30.371 104.969 30.5397L104.473 29.6182C104.764 29.3954 105.108 29.2299 105.506 29.1219C105.911 29.0071 106.33 28.9498 106.762 28.9498C107.545 28.9498 108.149 29.1388 108.575 29.5169C109.007 29.8882 109.223 30.4655 109.223 31.2486V34.4185H108.028ZM106.327 34.4894C105.921 34.4894 105.567 34.4219 105.263 34.2868C104.959 34.1451 104.723 33.9526 104.554 33.7096C104.392 33.4598 104.311 33.1796 104.311 32.869C104.311 32.5652 104.382 32.2918 104.524 32.0487C104.672 31.8057 104.912 31.6132 105.243 31.4715C105.574 31.3297 106.013 31.2588 106.559 31.2588H108.129V32.0993H106.651C106.218 32.0993 105.928 32.1702 105.78 32.312C105.631 32.447 105.557 32.6158 105.557 32.8184C105.557 33.0479 105.648 33.2302 105.83 33.3653C106.013 33.5003 106.266 33.5678 106.59 33.5678C106.9 33.5678 107.177 33.4969 107.42 33.3551C107.67 33.2133 107.849 33.004 107.957 32.7272L108.17 33.4868C108.048 33.8041 107.829 34.0505 107.511 34.2261C107.201 34.4016 106.806 34.4894 106.327 34.4894Z" fill="#0D2E54"/>
<path d="M110.848 34.4185V26.904H112.113V34.4185H110.848Z" fill="#0D2E54"/>
</svg>
