<svg width="43" height="35" viewBox="0 0 43 35" fill="none" xmlns="http://www.w3.org/2000/svg">
<path fill-rule="evenodd" clip-rule="evenodd" d="M37.9326 17.9596C38.2463 18.5347 38.0344 19.2552 37.4593 19.5688L27.1929 25.1687C26.4409 25.5789 25.5261 25.5518 24.7997 25.0977L21.3771 22.9586L11.5307 28.6184C10.9627 28.9449 10.2377 28.7491 9.91124 28.1812C9.58479 27.6132 9.78055 26.8882 10.3485 26.5617L20.5392 20.7041L21.3952 19.2475C21.7271 18.6827 22.454 18.4939 23.0188 18.8258C23.5835 19.1577 23.7723 19.8846 23.4404 20.4494L23.01 21.1817L26.057 23.0861L36.3233 17.4863C36.8984 17.1726 37.6189 17.3845 37.9326 17.9596Z" fill="#0D2E54"/>
<path fill-rule="evenodd" clip-rule="evenodd" d="M25.0663 0.642509C25.3888 0.0723123 26.1124 -0.128495 26.6826 0.193993L36.1316 5.53806C36.8758 5.959 37.336 6.74788 37.336 7.60293V12.0047C37.336 12.84 36.8967 13.6137 36.1794 14.0418L31.6497 16.745C31.0872 17.0807 30.3591 16.8968 30.0234 16.3343C29.6877 15.7717 29.8715 15.0436 30.4341 14.7079L34.9637 12.0047V7.60293L25.5148 2.25886C24.9446 1.93637 24.7438 1.2127 25.0663 0.642509Z" fill="#0D2E54"/>
<path fill-rule="evenodd" clip-rule="evenodd" d="M35.0654 11.8787C35.4159 11.3253 36.1487 11.1608 36.7021 11.5113L41.0938 14.2927C41.7805 14.7277 42.1967 15.4839 42.1967 16.2968V20.7298C42.1967 21.5735 41.7486 22.3538 41.0198 22.7789L37.2536 24.9759V29.2235C37.2536 30.0587 36.8143 30.8325 36.097 31.2605L32.2132 33.5783C31.4246 34.0489 30.4353 34.0221 29.6734 33.5095L25.7662 30.881C25.2226 30.5154 25.0784 29.7784 25.4441 29.2348C25.8097 28.6913 26.5468 28.5471 27.0903 28.9127L30.9975 31.5412L34.8813 29.2235V24.9759C34.8813 24.1322 35.3295 23.3519 36.0583 22.9268L39.8245 20.7298V16.2968L35.4328 13.5154C34.8794 13.1649 34.7149 12.4321 35.0654 11.8787Z" fill="#0D2E54"/>
<path fill-rule="evenodd" clip-rule="evenodd" d="M32.4048 26.5135C32.7264 27.0842 32.5244 27.8075 31.9537 28.1291L22.2154 33.6166C21.4287 34.0598 20.4586 34.0181 19.713 33.5089L15.7377 30.794C15.1967 30.4245 15.0576 29.6865 15.4271 29.1456C15.7965 28.6046 16.5345 28.4656 17.0755 28.835L21.0508 31.5499L30.7892 26.0624C31.3599 25.7408 32.0832 25.9427 32.4048 26.5135Z" fill="#0D2E54"/>
<path fill-rule="evenodd" clip-rule="evenodd" d="M32.4099 9.31203C32.7264 9.88558 32.518 10.6071 31.9445 10.9236L27.9439 13.1312V17.7248L32.0253 20.4214C32.5718 20.7826 32.7221 21.5184 32.361 22.0649C31.9999 22.6115 31.2641 22.7618 30.7176 22.4007L26.6362 19.7041C25.9715 19.2649 25.5717 18.5215 25.5717 17.7248V13.1312C25.5717 12.2672 26.0413 11.4716 26.7978 11.0542L30.7983 8.84659C31.3719 8.5301 32.0934 8.73849 32.4099 9.31203Z" fill="#0D2E54"/>
<path fill-rule="evenodd" clip-rule="evenodd" d="M10.1107 20.6996C10.4267 20.1258 11.148 19.9168 11.7218 20.2328L17.0611 23.1732C17.6349 23.4892 17.8439 24.2106 17.5279 24.7844C17.2119 25.3582 16.4906 25.5672 15.9168 25.2512L10.5775 22.3108C10.0037 21.9948 9.79467 21.2734 10.1107 20.6996Z" fill="#0D2E54"/>
<path fill-rule="evenodd" clip-rule="evenodd" d="M0.169211 20.8988C0.506244 20.3371 1.23483 20.1549 1.79655 20.4919L7.70994 24.04V31.3397C7.70994 32.259 8.71056 32.8289 9.50122 32.3598L19.9148 26.1823C20.4782 25.848 21.2059 26.0338 21.5401 26.5972C21.8744 27.1606 21.6886 27.8883 21.1252 28.2225L10.7115 34.4001C8.33955 35.8072 5.33771 34.0977 5.33771 31.3397V25.3831L0.576046 22.5261C0.0143244 22.1891 -0.167822 21.4605 0.169211 20.8988Z" fill="#0D2E54"/>
<path fill-rule="evenodd" clip-rule="evenodd" d="M15.2314 0.347299C15.9762 -0.111026 16.9095 -0.116055 17.6591 0.334217L26.352 5.55597C26.9127 5.89278 27.0979 6.62662 26.7657 7.19504C26.4335 7.76347 25.7096 7.95124 25.1489 7.61443L16.456 2.39268L12.6486 4.73557L12.6486 9.39468L15.6502 11.2169C16.2093 11.5564 16.3911 12.2911 16.0563 12.8579C15.7215 13.4248 14.9968 13.6091 14.4376 13.2697L6.61039 8.51783L2.43975 10.8667L1.86668 9.82085L2.43975 10.8667L2.43977 15.0344L7.97938 18.3947C8.53864 18.734 8.72074 19.4686 8.3861 20.0356C8.05146 20.6026 7.3268 20.7872 6.76754 20.4479L1.22793 17.0875C0.515656 16.6555 0.0796257 15.8759 0.079622 15.0344L0.0796032 10.8667C0.0795995 9.9977 0.544315 9.19704 1.29361 8.77505L5.46425 6.42623C6.20093 6.01134 7.09993 6.02614 7.82294 6.46507L10.2884 7.96186V4.73556C10.2884 3.89947 10.7189 3.12402 11.424 2.69019L15.2314 0.347299ZM15.809 6.11313C16.1506 5.55042 16.8774 5.37497 17.4325 5.72125L21.4072 8.20094C22.1752 8.6801 22.6068 9.56108 22.5192 10.471L22.1724 14.0755C22.1044 14.7814 21.731 15.4205 21.1529 15.82L17.6011 18.2751C16.5095 19.0297 15.0943 19.1052 13.9306 18.4711L5.75265 14.0148C5.17859 13.702 4.96335 12.9767 5.27191 12.3947C5.58047 11.8127 6.29598 11.5945 6.87005 11.9073L15.048 16.3636C15.4359 16.5749 15.9076 16.5498 16.2715 16.2983L19.8234 13.8431L20.1702 10.2387L16.1955 7.759C15.6405 7.41272 15.4674 6.67584 15.809 6.11313Z" fill="#E62152"/>
</svg>
